M48
INCH
T1C0.0118
T2C0.0315
T3C0.0354
T4C0.0394
T5C0.0433
T6C0.0472
T7C0.0591
T8C0.0630
T9C0.1693
%
G90
G05
T1
X6.6752Y-3.937
X7.9587Y-3.937
X11.128Y-3.937
T2
X2.8543Y-4.3443
X2.8543Y-4.423
X2.8543Y-4.6457
X2.8543Y-4.7457
X2.8543Y-4.8457
X3.1988Y-4.3524
X3.1988Y-4.4311
X3.4941Y-4.311
X4.5768Y-4.311
X4.6949Y-4.3898
X4.8917Y-4.9409
X4.8917Y-5.3346
X4.8917Y-5.4331
X4.8917Y-5.8268
X5.187Y-4.9409
X5.187Y-5.3346
X5.4823Y-4.3898
X6.5354Y-4.2224
X6.5354Y-5.2067
X6.8799Y-4.2224
X6.8799Y-5.2067
X7.7047Y-4.4291
X7.7835Y-4.4291
X8.0217Y-5.1181
X8.1004Y-5.1181
X9.0453Y-5.6102
X9.8327Y-5.6102
X10.561Y-4.3307
X11.3287Y-5.2577
X11.3287Y-5.3364
X11.6437Y-4.3307
X11.6437Y-5.0886
X11.6437Y-5.876
X12.5197Y-4.311
X13.061Y-5.5199
X13.061Y-5.5986
X13.061Y-5.7579
X13.061Y-5.8366
X13.3071Y-4.311
T3
X5.128Y-5.5709
X5.228Y-5.5709
T4
X9.2126Y-5.0787
X9.2126Y-5.374
X10.1575Y-4.5177
X10.4528Y-4.5177
X11.3287Y-5.5413
X11.3287Y-5.8366
X13.3071Y-5.2264
X13.3071Y-5.5217
T5
X3.0709Y-4.5819
X3.0709Y-4.8819
X9.2126Y-4.3012
X9.2126Y-4.8917
T6
X2.776Y-4.1732
X2.8543Y-5.0299
X2.8543Y-5.6299
X3.0709Y-5.0299
X3.0709Y-5.6299
X3.376Y-4.1732
X3.6811Y-4.872
X3.6811Y-5.672
X3.9469Y-4.872
X3.9469Y-5.672
X4.1409Y-4.7205
X4.2224Y-5.0787
X4.2224Y-5.6787
X4.4291Y-5.0787
X4.4291Y-5.6787
X4.9409Y-4.7205
X5.3441Y-4.7205
X5.4429Y-5.0299
X5.4429Y-5.6299
X5.6496Y-4.2126
X5.65Y-4.4291
X5.6594Y-5.0299
X5.6594Y-5.6299
X5.876Y-5.0299
X5.876Y-5.6299
X6.1441Y-4.7205
X6.2496Y-4.2126
X6.25Y-4.4291
X7.1953Y-5.4232
X7.1953Y-5.6398
X7.3209Y-4.0949
X7.3209Y-4.6949
X7.3917Y-4.9399
X7.3917Y-5.1368
X7.5276Y-4.0949
X7.5276Y-4.6949
X7.7953Y-5.4232
X7.7953Y-5.6398
X8.1677Y-4.3465
X8.2776Y-4.8035
X8.2776Y-5.4035
X8.3272Y-5.6102
X8.4941Y-4.8031
X8.4941Y-5.4031
X8.7106Y-4.8031
X8.7106Y-5.4031
X8.9272Y-4.8024
X8.9272Y-5.4024
X8.9272Y-5.6102
X8.9677Y-4.3465
X9.7827Y-4.6151
X9.7827Y-4.812
X10.0394Y-4.9965
X10.0394Y-5.5965
X10.252Y-5.0004
X10.252Y-5.6004
X10.4626Y-5.0016
X10.4626Y-5.6016
X10.5976Y-4.7205
X10.689Y-5.0004
X10.689Y-5.6004
X10.9055Y-5.0
X10.9055Y-5.6
X11.122Y-5.0051
X11.122Y-5.6051
X11.3976Y-4.7205
X11.7866Y-4.3209
X11.9311Y-5.0791
X11.9311Y-5.6791
X12.1457Y-5.0787
X12.1457Y-5.6787
X12.1535Y-4.6151
X12.1535Y-4.812
X12.3563Y-5.0772
X12.3563Y-5.6772
X12.3866Y-4.3209
X12.5689Y-5.0772
X12.5689Y-5.6772
X12.7815Y-5.0772
X12.7815Y-5.6772
T7
X2.8543Y-3.937
X2.8543Y-5.876
X3.3504Y-5.876
X3.6614Y-3.937
X3.6811Y-5.876
X3.9567Y-3.937
X4.1043Y-5.876
X4.2717Y-3.937
X4.5965Y-5.876
X5.1417Y-3.937
X5.187Y-5.876
X5.4035Y-5.876
X5.4528Y-3.937
X5.6201Y-5.876
X5.8366Y-5.876
X6.0787Y-5.876
X6.2992Y-5.876
X6.5157Y-5.876
X6.7323Y-5.876
X6.9488Y-5.876
X7.3228Y-3.937
X7.3917Y-5.876
X7.5295Y-3.937
X8.2382Y-5.876
X8.4547Y-5.876
X8.6614Y-5.876
X8.9272Y-5.876
X8.9665Y-3.937
X9.2126Y-3.937
X9.2618Y-5.876
X9.4882Y-3.937
X9.6358Y-5.876
X10.0394Y-5.876
X10.2559Y-5.876
X10.4528Y-5.876
X10.6693Y-5.876
X10.8858Y-5.876
X11.8307Y-3.937
X11.9291Y-5.876
X12.0669Y-3.937
X12.1457Y-5.876
X12.2933Y-3.937
X12.5492Y-5.876
X12.7854Y-5.876
X12.8346Y-3.937
X13.2579Y-3.937
T8
X3.1004Y-5.876
X3.1594Y-3.937
T9
X13.1299Y-4.9114
M30
