%TF.GenerationSoftware,KiCad,Pcbnew,10.0.0*%
%TF.CreationDate,2026-04-14T21:28:16+01:00*%
%TF.ProjectId,PrincetonReverbUpdate,5072696e-6365-4746-9f6e-526576657262,rev?*%
%TF.SameCoordinates,Original*%
%TF.FileFunction,Soldermask,Top*%
%TF.FilePolarity,Negative*%
%FSLAX46Y46*%
G04 Gerber Fmt 4.6, Leading zero omitted, Abs format (unit mm)*
G04 Created by KiCad (PCBNEW 10.0.0) date 2026-04-14 21:28:16*
%MOMM*%
%LPD*%
G01*
G04 APERTURE LIST*
G04 Aperture macros list*
%AMRoundRect*
0 Rectangle with rounded corners*
0 $1 Rounding radius*
0 $2 $3 $4 $5 $6 $7 $8 $9 X,Y pos of 4 corners*
0 Add a 4 corners polygon primitive as box body*
4,1,4,$2,$3,$4,$5,$6,$7,$8,$9,$2,$3,0*
0 Add four circle primitives for the rounded corners*
1,1,$1+$1,$2,$3*
1,1,$1+$1,$4,$5*
1,1,$1+$1,$6,$7*
1,1,$1+$1,$8,$9*
0 Add four rect primitives between the rounded corners*
20,1,$1+$1,$2,$3,$4,$5,0*
20,1,$1+$1,$4,$5,$6,$7,0*
20,1,$1+$1,$6,$7,$8,$9,0*
20,1,$1+$1,$8,$9,$2,$3,0*%
G04 Aperture macros list end*
%ADD10C,2.400000*%
%ADD11C,3.000000*%
%ADD12C,4.300000*%
%ADD13R,1.000000X1.500000*%
%ADD14RoundRect,0.250000X-0.550000X0.550000X-0.550000X-0.550000X0.550000X-0.550000X0.550000X0.550000X0*%
%ADD15C,1.600000*%
%ADD16RoundRect,0.250001X0.949999X-0.949999X0.949999X0.949999X-0.949999X0.949999X-0.949999X-0.949999X0*%
%ADD17C,2.200000*%
%ADD18RoundRect,0.250000X0.550000X-0.550000X0.550000X0.550000X-0.550000X0.550000X-0.550000X-0.550000X0*%
%ADD19C,2.000000*%
%ADD20C,7.600000*%
%ADD21C,1.440000*%
%ADD22RoundRect,0.250000X-0.550000X-0.550000X0.550000X-0.550000X0.550000X0.550000X-0.550000X0.550000X0*%
%ADD23C,2.800000*%
%ADD24RoundRect,0.250000X0.550000X0.550000X-0.550000X0.550000X-0.550000X-0.550000X0.550000X-0.550000X0*%
%ADD25RoundRect,0.249999X0.850001X-0.850001X0.850001X0.850001X-0.850001X0.850001X-0.850001X-0.850001X0*%
%ADD26R,1.800000X1.800000*%
%ADD27C,1.800000*%
G04 APERTURE END LIST*
%TO.C,JP5*%
G36*
X202000000Y-99250000D02*
G01*
X202300000Y-99250000D01*
X202300000Y-100750000D01*
X202000000Y-100750000D01*
X202000000Y-99250000D01*
G37*
%TO.C,JP4*%
G36*
X169400000Y-99250000D02*
G01*
X169700000Y-99250000D01*
X169700000Y-100750000D01*
X169400000Y-100750000D01*
X169400000Y-99250000D01*
G37*
%TO.C,JP6*%
G36*
X282500000Y-99250000D02*
G01*
X282800000Y-99250000D01*
X282800000Y-100750000D01*
X282500000Y-100750000D01*
X282500000Y-99250000D01*
G37*
%TD*%
D10*
%TO.C,R5*%
X324650000Y-144200000D03*
X324650000Y-128960000D03*
%TD*%
D11*
%TO.C,W46*%
X154400000Y-149250000D03*
%TD*%
%TO.C,W8*%
X260500000Y-149250000D03*
%TD*%
D12*
%TO.C,H1*%
X85073893Y-124800000D03*
%TD*%
D10*
%TO.C,R17*%
X260400000Y-127010000D03*
X260400000Y-142250000D03*
%TD*%
D13*
%TO.C,JP5*%
X201500000Y-100000000D03*
X202800000Y-100000000D03*
%TD*%
D14*
%TO.C,C12*%
X287750000Y-133544888D03*
D15*
X287750000Y-135544888D03*
%TD*%
D11*
%TO.C,W29*%
X214750000Y-149250000D03*
%TD*%
%TO.C,W13*%
X324750000Y-149250000D03*
%TD*%
D10*
%TO.C,R14*%
X210250000Y-122010000D03*
X210250000Y-137250000D03*
%TD*%
D11*
%TO.C,W33*%
X241000000Y-100000000D03*
%TD*%
D10*
%TO.C,R33*%
X158750000Y-112500000D03*
X143510000Y-112500000D03*
%TD*%
D16*
%TO.C,C23*%
X248480000Y-122223959D03*
D10*
X248480000Y-117223959D03*
%TD*%
D11*
%TO.C,W20*%
X336750000Y-100000000D03*
%TD*%
D10*
%TO.C,R42*%
X125500000Y-119900000D03*
X105180000Y-119900000D03*
%TD*%
D11*
%TO.C,W30*%
X234000000Y-100000000D03*
%TD*%
%TO.C,W38*%
X142750000Y-149250000D03*
%TD*%
%TO.C,W22*%
X244750000Y-149250000D03*
%TD*%
%TO.C,W17*%
X171000000Y-149250000D03*
%TD*%
%TO.C,W34*%
X191250000Y-100000000D03*
%TD*%
D10*
%TO.C,R8*%
X313850000Y-144200000D03*
X313850000Y-128960000D03*
%TD*%
D11*
%TO.C,W16*%
X265500000Y-149250000D03*
%TD*%
D13*
%TO.C,JP4*%
X168900000Y-100000000D03*
X170200000Y-100000000D03*
%TD*%
D17*
%TO.C,C11*%
X234000000Y-124250000D03*
X234000000Y-109250000D03*
%TD*%
D11*
%TO.C,W4*%
X308500000Y-149250000D03*
%TD*%
D14*
%TO.C,C29*%
X72500000Y-110344888D03*
D15*
X72500000Y-112344888D03*
%TD*%
D10*
%TO.C,R4*%
X191200000Y-119250000D03*
X191200000Y-104010000D03*
%TD*%
%TO.C,R40*%
X227780000Y-110400000D03*
X207460000Y-110400000D03*
%TD*%
%TO.C,R39*%
X255000000Y-126910000D03*
X255000000Y-142150000D03*
%TD*%
%TO.C,R46*%
X93500000Y-123750000D03*
X93500000Y-144070000D03*
%TD*%
D11*
%TO.C,W39*%
X72500000Y-149250000D03*
%TD*%
D10*
%TO.C,R27*%
X215750000Y-122000000D03*
X215750000Y-137240000D03*
%TD*%
D11*
%TO.C,W1*%
X326000000Y-100000000D03*
%TD*%
D10*
%TO.C,R34*%
X158740000Y-107000000D03*
X143500000Y-107000000D03*
%TD*%
D15*
%TO.C,C4*%
X295750000Y-110000000D03*
X268250000Y-110000000D03*
%TD*%
%TO.C,C15*%
X124250000Y-135500000D03*
X124250000Y-125500000D03*
%TD*%
D18*
%TO.C,C1*%
X331750000Y-148250000D03*
D15*
X331750000Y-146250000D03*
%TD*%
D11*
%TO.C,W31*%
X130600000Y-100000000D03*
%TD*%
D10*
%TO.C,R6*%
X185950000Y-119250000D03*
X185950000Y-104010000D03*
%TD*%
D14*
%TO.C,C24*%
X81250000Y-110550000D03*
D15*
X81250000Y-112550000D03*
%TD*%
D11*
%TO.C,W7*%
X160000000Y-149250000D03*
%TD*%
%TO.C,W41*%
X93500000Y-149250000D03*
%TD*%
%TO.C,W43*%
X235250000Y-149250000D03*
%TD*%
D10*
%TO.C,R18*%
X265750000Y-127040000D03*
X265750000Y-142280000D03*
%TD*%
D19*
%TO.C,C10*%
X287750000Y-140750000D03*
X287750000Y-148250000D03*
%TD*%
D10*
%TO.C,R13*%
X308500000Y-144240000D03*
X308500000Y-129000000D03*
%TD*%
%TO.C,R19*%
X277000000Y-127000000D03*
X277000000Y-142240000D03*
%TD*%
D11*
%TO.C,W42*%
X148250000Y-149250000D03*
%TD*%
%TO.C,W44*%
X72500000Y-100000000D03*
%TD*%
%TO.C,W6*%
X176500000Y-149250000D03*
%TD*%
D10*
%TO.C,R37*%
X72500000Y-143000000D03*
X72500000Y-127760000D03*
%TD*%
D15*
%TO.C,C22*%
X116250000Y-109500000D03*
X88750000Y-109500000D03*
%TD*%
D11*
%TO.C,W9*%
X226750000Y-149250000D03*
%TD*%
D10*
%TO.C,R41*%
X156060000Y-119900000D03*
X135740000Y-119900000D03*
%TD*%
%TO.C,R21*%
X143750000Y-143000000D03*
X143750000Y-127760000D03*
%TD*%
D13*
%TO.C,JP6*%
X282000000Y-100000000D03*
X283300000Y-100000000D03*
%TD*%
D11*
%TO.C,W24*%
X220000000Y-149250000D03*
%TD*%
%TO.C,W5*%
X255000000Y-149250000D03*
%TD*%
D19*
%TO.C,C6*%
X258000000Y-114750000D03*
X265500000Y-114750000D03*
%TD*%
D10*
%TO.C,R23*%
X226750000Y-142500000D03*
X211510000Y-142500000D03*
%TD*%
D11*
%TO.C,W12*%
X271000000Y-149250000D03*
%TD*%
%TO.C,W21*%
X187750000Y-149250000D03*
%TD*%
%TO.C,W26*%
X93000000Y-100000000D03*
%TD*%
%TO.C,W2*%
X318750000Y-149250000D03*
%TD*%
D20*
%TO.C,H2*%
X333500000Y-124750000D03*
%TD*%
D19*
%TO.C,C27*%
X234000000Y-136500000D03*
X234000000Y-129000000D03*
%TD*%
D10*
%TO.C,R15*%
X282500000Y-127130000D03*
X282500000Y-142370000D03*
%TD*%
D16*
%TO.C,C18*%
X187750000Y-130473959D03*
D10*
X187750000Y-125473959D03*
%TD*%
D11*
%TO.C,W10*%
X85100000Y-149250000D03*
%TD*%
D21*
%TO.C,RV7*%
X72500000Y-118000000D03*
X72500000Y-120540000D03*
X72500000Y-123080000D03*
%TD*%
D10*
%TO.C,R7*%
X319250000Y-144200000D03*
X319250000Y-128960000D03*
%TD*%
D11*
%TO.C,W23*%
X108500000Y-100000000D03*
%TD*%
%TO.C,W27*%
X100500000Y-100000000D03*
%TD*%
D10*
%TO.C,R24*%
X138250000Y-143000000D03*
X138250000Y-127760000D03*
%TD*%
%TO.C,R12*%
X221250000Y-122000000D03*
X221250000Y-137240000D03*
%TD*%
%TO.C,R20*%
X149250000Y-143000000D03*
X149250000Y-127760000D03*
%TD*%
D11*
%TO.C,W3*%
X312250000Y-100000000D03*
%TD*%
D10*
%TO.C,R30*%
X198000000Y-137750000D03*
X182760000Y-137750000D03*
%TD*%
D15*
%TO.C,C8*%
X295750000Y-149250000D03*
X295750000Y-129250000D03*
%TD*%
D22*
%TO.C,C2*%
X195700000Y-112500000D03*
D15*
X197700000Y-112500000D03*
%TD*%
%TO.C,C21*%
X174750000Y-107250000D03*
X174750000Y-132250000D03*
%TD*%
D11*
%TO.C,W11*%
X306500000Y-100000000D03*
%TD*%
%TO.C,W18*%
X165500000Y-149250000D03*
%TD*%
D23*
%TO.C,TP2*%
X80250000Y-100000000D03*
%TD*%
D11*
%TO.C,W45*%
X104250000Y-149250000D03*
%TD*%
D16*
%TO.C,C25*%
X308700000Y-122223959D03*
D10*
X308700000Y-117223959D03*
%TD*%
D11*
%TO.C,W14*%
X300500000Y-100000000D03*
%TD*%
D15*
%TO.C,C13*%
X131750000Y-135500000D03*
X131750000Y-125500000D03*
%TD*%
%TO.C,C17*%
X124250000Y-148000000D03*
X124250000Y-138000000D03*
%TD*%
D10*
%TO.C,R28*%
X100250000Y-123750000D03*
X100250000Y-144070000D03*
%TD*%
D24*
%TO.C,C9*%
X205750000Y-130000000D03*
D15*
X203750000Y-130000000D03*
%TD*%
D10*
%TO.C,R31*%
X112500000Y-129000000D03*
X112500000Y-144240000D03*
%TD*%
D18*
%TO.C,C7*%
X331750000Y-142205113D03*
D15*
X331750000Y-140205113D03*
%TD*%
D25*
%TO.C,D1*%
X78000000Y-124000000D03*
D17*
X78000000Y-116380000D03*
%TD*%
D19*
%TO.C,C3*%
X338000000Y-140250000D03*
X338000000Y-132750000D03*
%TD*%
D11*
%TO.C,W32*%
X137250000Y-149250000D03*
%TD*%
%TO.C,W15*%
X303000000Y-149250000D03*
%TD*%
D10*
%TO.C,R10*%
X314620000Y-109750000D03*
X299380000Y-109750000D03*
%TD*%
D26*
%TO.C,D2*%
X130250000Y-141500000D03*
D27*
X132790000Y-141500000D03*
%TD*%
D10*
%TO.C,R9*%
X289500000Y-119900000D03*
X269180000Y-119900000D03*
%TD*%
%TO.C,R48*%
X78000000Y-143000000D03*
X78000000Y-127760000D03*
%TD*%
D15*
%TO.C,C19*%
X119250000Y-111500000D03*
X139250000Y-111500000D03*
%TD*%
D10*
%TO.C,R35*%
X85750000Y-106000000D03*
X70510000Y-106000000D03*
%TD*%
D15*
%TO.C,C5*%
X338000000Y-109500000D03*
X318000000Y-109500000D03*
%TD*%
D11*
%TO.C,W36*%
X227750000Y-100000000D03*
%TD*%
%TO.C,W40*%
X116750000Y-149250000D03*
%TD*%
%TO.C,W28*%
X186000000Y-100000000D03*
%TD*%
%TO.C,W25*%
X131750000Y-149250000D03*
%TD*%
%TO.C,W35*%
X209250000Y-149250000D03*
%TD*%
D15*
%TO.C,C20*%
X166000000Y-107250000D03*
X166000000Y-132250000D03*
%TD*%
D10*
%TO.C,R11*%
X303050000Y-144250000D03*
X303050000Y-129010000D03*
%TD*%
D11*
%TO.C,W19*%
X276500000Y-149250000D03*
%TD*%
D23*
%TO.C,TP1*%
X78750000Y-149250000D03*
%TD*%
D10*
%TO.C,R16*%
X226750000Y-121980000D03*
X226750000Y-137220000D03*
%TD*%
%TO.C,R29*%
X107250000Y-129000000D03*
X107250000Y-144240000D03*
%TD*%
D15*
%TO.C,C14*%
X229750000Y-142500000D03*
X249750000Y-142500000D03*
%TD*%
D10*
%TO.C,R22*%
X271500000Y-127010000D03*
X271500000Y-142250000D03*
%TD*%
D11*
%TO.C,W37*%
X138500000Y-100000000D03*
%TD*%
D10*
%TO.C,R26*%
X198000000Y-143250000D03*
X182760000Y-143250000D03*
%TD*%
M02*
